<?xml version="1.0" standalone="no"?><!DOCTYPE svg PUBLIC "-//W3C//DTD SVG 1.1//EN" "http://www.w3.org/Graphics/SVG/1.1/DTD/svg11.dtd"><svg t="1776502936504" class="icon" viewBox="0 0 1024 1024" version="1.1" xmlns="http://www.w3.org/2000/svg" p-id="1308" xmlns:xlink="http://www.w3.org/1999/xlink" width="200" height="200"><path d="M74.496 46.848h875.008A74.496 74.496 0 0 1 1024 121.344v670.208a186.112 186.112 0 0 1-186.112 186.112H186.112A186.112 186.112 0 0 1 0 791.552V121.344a74.496 74.496 0 0 1 74.496-74.496z" fill="#0084FF" p-id="1309"></path><path d="M74.496 46.336h875.008A74.496 74.496 0 0 1 1024 120.576v93.184H0V120.576a74.496 74.496 0 0 1 74.496-74.24z" fill="#FFC000" p-id="1310"></path><path d="M785.408 432.64l-52.736-52.736a25.6 25.6 0 0 0-35.072 0l-240.64 240.896-136.448-136.448a25.6 25.6 0 0 0-35.072 0L232.704 537.6a25.6 25.6 0 0 0 0 35.072l153.6 153.6 52.736 52.736a25.6 25.6 0 0 0 35.072 0l52.736-52.736 258.56-258.56a25.6 25.6 0 0 0 0-35.072z" fill="#FFFFFF" p-id="1311"></path></svg>